<svg height="512" viewBox="0 0 64 64" width="512" xmlns="http://www.w3.org/2000/svg"><g id="dish-stay_at_home-coronavirus-covid-covid19" data-name="dish-stay at home-coronavirus-covid-covid19"><path d="m37.94 46-.53 8.43a25.99 25.99 0 0 1 -5.41.57 26.55 26.55 0 0 1 -3.23-.2l-.3-8.15a17.183 17.183 0 0 0 3.53.35 18.237 18.237 0 0 0 5.94-1z" fill="#3da9fc"/><path d="m58 29a26.028 26.028 0 0 1 -16 24.01v-9.04a18 18 0 1 0 -18.4.95l-.32 8.58a26 26 0 1 1 34.72-24.5z" fill="#3da9fc"/><g fill="#094067"><path d="m32 2a26.991 26.991 0 0 0 -9.748 52.164l-.141 3.8a3.892 3.892 0 1 0 7.778 0l-.077-2.064c.728.059 1.458.1 2.188.1a27.265 27.265 0 0 0 4.332-.346l-.169 2.71a3.422 3.422 0 1 0 6.837.214v-4.933a26.992 26.992 0 0 0 -11-51.645zm3 42v-14a7.011 7.011 0 0 1 6-6.929v20.929zm7-23a9.01 9.01 0 0 0 -9 9v15a1 1 0 0 0 .6.913 17.193 17.193 0 0 1 -4.161-.107l-.407-11a3 3 0 0 0 1.968-2.806v-11h-2v6h-2v-6h-2v6h-2v-6h-2v11a3 3 0 0 0 1.969 2.806l-.311 8.394a17 17 0 1 1 20.342-1.24v-19.96a1 1 0 0 0 -1-1zm-19 11v-3h6v3a1 1 0 0 1 -1 1h-4a1 1 0 0 1 -1-1zm4.362 27.421a1.934 1.934 0 0 1 -2.724 0 1.874 1.874 0 0 1 -.528-1.382l.854-23.039h2.072l.854 23.039a1.874 1.874 0 0 1 -.528 1.382zm2.375-5.547-.224-6.054a18.389 18.389 0 0 0 7.337-.449l-.388 6.207a25.343 25.343 0 0 1 -6.725.296zm11.263 4.704a1.424 1.424 0 0 1 -1.422 1.422 1.422 1.422 0 0 1 -1.419-1.511l.78-12.489h2.061zm2-7.123v-6.972a19 19 0 1 0 -20.427 1.008l-.243 6.56a24.991 24.991 0 1 1 20.67-.6z"/><path d="m7 5h2v2h-2z"/><path d="m5 7h2v2h-2z"/><path d="m9 7h2v2h-2z"/><path d="m7 9h2v2h-2z"/><path d="m55 5h2v2h-2z"/><path d="m53 7h2v2h-2z"/><path d="m57 7h2v2h-2z"/><path d="m55 9h2v2h-2z"/><path d="m7 53h2v2h-2z"/><path d="m5 55h2v2h-2z"/><path d="m9 55h2v2h-2z"/><path d="m7 57h2v2h-2z"/><path d="m55 53h2v2h-2z"/><path d="m53 55h2v2h-2z"/><path d="m57 55h2v2h-2z"/><path d="m55 57h2v2h-2z"/></g></g></svg>